<svg xmlns="http://www.w3.org/2000/svg" width="28.046" height="33.617" viewBox="0 0 28.046 33.617"><defs><style>.a{fill:#0a69a9;}</style></defs><g transform="translate(0 0)"><path class="a" d="M95.129,16.193a7.834,7.834,0,0,0,5.725-2.372A7.834,7.834,0,0,0,103.225,8.1a7.835,7.835,0,0,0-2.372-5.725,8.095,8.095,0,0,0-11.449,0A7.835,7.835,0,0,0,87.032,8.1,7.834,7.834,0,0,0,89.4,13.821,7.836,7.836,0,0,0,95.129,16.193Zm0,0" transform="translate(-81.318)"/><path class="a" d="M27.978,256.928a20,20,0,0,0-.272-2.124,16.735,16.735,0,0,0-.522-2.136,10.549,10.549,0,0,0-.878-1.992,7.515,7.515,0,0,0-1.324-1.725,5.837,5.837,0,0,0-1.9-1.195,6.573,6.573,0,0,0-2.428-.439,2.464,2.464,0,0,0-1.316.558c-.394.257-.856.555-1.371.884a7.857,7.857,0,0,1-1.774.781,6.888,6.888,0,0,1-4.339,0,7.837,7.837,0,0,1-1.772-.781c-.51-.326-.972-.623-1.372-.884a2.461,2.461,0,0,0-1.315-.558,6.564,6.564,0,0,0-2.428.44,5.832,5.832,0,0,0-1.9,1.195,7.516,7.516,0,0,0-1.323,1.725,10.569,10.569,0,0,0-.878,1.992A16.776,16.776,0,0,0,.339,254.8a19.929,19.929,0,0,0-.272,2.125c-.045.643-.067,1.311-.067,1.985a5.582,5.582,0,0,0,1.658,4.223,5.968,5.968,0,0,0,4.272,1.558H22.116a5.967,5.967,0,0,0,4.272-1.558,5.58,5.58,0,0,0,1.658-4.223c0-.677-.023-1.345-.068-1.986Zm0,0" transform="translate(0 -231.078)"/></g></svg>