<svg xmlns="http://www.w3.org/2000/svg" width="33.616" height="33.617" viewBox="0 0 33.616 33.617"><defs><style>.a{fill:#0a69a9;}</style></defs><g transform="translate(-0.001 0)"><g transform="translate(0.001 0)"><path class="a" d="M30.449,3.168a10.828,10.828,0,0,0-17.959,11L.29,26.363a.984.984,0,0,0-.289.7v5.572a.984.984,0,0,0,.985.985H6.557a.984.984,0,0,0,.7-.289l1.393-1.394a.985.985,0,0,0,.282-.81l-.173-1.5,2.074-.2a.983.983,0,0,0,.888-.888l.2-2.074,1.5.174a.969.969,0,0,0,.768-.242.987.987,0,0,0,.33-.736V23.833h1.8a.984.984,0,0,0,.7-.289l2.526-2.492a10.666,10.666,0,0,0,10.921-2.564A10.846,10.846,0,0,0,30.449,3.168Zm-2.786,6.964a2.954,2.954,0,1,1,0-4.178A2.957,2.957,0,0,1,27.663,10.132Z" transform="translate(-0.001 0)"/></g></g></svg>